HIERARCHY
ROOT joint_Root
{
	OFFSET 0.0 0.0 0.0
	CHANNELS 6 Xposition Yposition Zposition Zrotation Xrotation Yrotation 
	JOINT Hips
	{
		OFFSET -0.726466 93.3139 -2.00062
		CHANNELS 6 Xposition Yposition Zposition Zrotation Xrotation Yrotation 
		JOINT Spine
		{
			OFFSET 15.7357 0.0 0.0
			CHANNELS 6 Xposition Yposition Zposition Zrotation Xrotation Yrotation 
			JOINT Chest
			{
				OFFSET 8.98455 -0.406207 0.0
				CHANNELS 6 Xposition Yposition Zposition Zrotation Xrotation Yrotation 
				JOINT Neck
				{
					OFFSET 16.3773 0.0 0.0
					CHANNELS 6 Xposition Yposition Zposition Zrotation Xrotation Yrotation 
					JOINT Head
					{
						OFFSET 6.45672 0.0 0.0
						CHANNELS 6 Xposition Yposition Zposition Zrotation Xrotation Yrotation 
						End Site
						{
							OFFSET 0.0 0.0 0.0
						}
					}
				}
				JOINT Shoulder_L
				{
					OFFSET 12.9942 -0.242716 4.98039
					CHANNELS 6 Xposition Yposition Zposition Zrotation Xrotation Yrotation 
					JOINT UpperArm_L
					{
						OFFSET 5.34809 0.0 0.0
						CHANNELS 6 Xposition Yposition Zposition Zrotation Xrotation Yrotation 
						JOINT LowerArm_L
						{
							OFFSET 24.3286 1.87007e-05 0.0
							CHANNELS 6 Xposition Yposition Zposition Zrotation Xrotation Yrotation 
							JOINT Hand_L
							{
								OFFSET 22.2916 0.0 0.0
								CHANNELS 6 Xposition Yposition Zposition Zrotation Xrotation Yrotation 
								End Site
								{
									OFFSET 0.0 0.0 0.0
								}
							}
						}
					}
				}
				JOINT Shoulder_R
				{
					OFFSET 12.9945 -0.242716 -4.98039
					CHANNELS 6 Xposition Yposition Zposition Zrotation Xrotation Yrotation 
					JOINT UpperArm_R
					{
						OFFSET -5.34813 0.0 0.0
						CHANNELS 6 Xposition Yposition Zposition Zrotation Xrotation Yrotation 
						JOINT LowerArm_R
						{
							OFFSET -24.3289 0.000322201 0.0
							CHANNELS 6 Xposition Yposition Zposition Zrotation Xrotation Yrotation 
							JOINT Hand_R
							{
								OFFSET -22.2915 -0.000108084 0.0
								CHANNELS 6 Xposition Yposition Zposition Zrotation Xrotation Yrotation 
								End Site
								{
									OFFSET 0.0 0.0 0.0
								}
							}
						}
					}
				}
			}
		}
		JOINT UpperLeg_L
		{
			OFFSET -2.19248 -6.46944 0.0
			CHANNELS 6 Xposition Yposition Zposition Zrotation Xrotation Yrotation 
			JOINT LowerLeg_L
			{
				OFFSET 39.0811 0.0 -1.23785e-05
				CHANNELS 6 Xposition Yposition Zposition Zrotation Xrotation Yrotation 
				JOINT Foot_L
				{
					OFFSET 40.9854 0.0 -1.26872e-05
					CHANNELS 6 Xposition Yposition Zposition Zrotation Xrotation Yrotation 
					JOINT Toes_L
					{
						OFFSET 11.7543 0.0 0.0
						CHANNELS 6 Xposition Yposition Zposition Zrotation Xrotation Yrotation 
						End Site
						{
							OFFSET 0.0 0.0 0.0
						}
					}
				}
			}
		}
		JOINT UpperLeg_R
		{
			OFFSET -2.19251 6.46944 0.0
			CHANNELS 6 Xposition Yposition Zposition Zrotation Xrotation Yrotation 
			JOINT LowerLeg_R
			{
				OFFSET -39.0811 -0.00228153 -0.0401928
				CHANNELS 6 Xposition Yposition Zposition Zrotation Xrotation Yrotation 
				JOINT Foot_R
				{
					OFFSET -40.9854 0.0 0.0
					CHANNELS 6 Xposition Yposition Zposition Zrotation Xrotation Yrotation 
					JOINT Toes_R
					{
						OFFSET -11.7543 0.0 0.0
						CHANNELS 6 Xposition Yposition Zposition Zrotation Xrotation Yrotation 
						End Site
						{
							OFFSET 0.0 0.0 0.0
						}
					}
				}
			}
		}
	}
}
MOTION
Frames:	6
Frame Time:	0.0333333
0.000000 0.000000 0.000000 0.000000 0.000000 -0.000000 -1.383240 92.073900 -1.671840 87.356700 -0.163038 2.676830 15.735700 0.000005 -0.000001 84.700100 85.164500 -84.247200 8.984550 -0.406207 -0.000000 1.867550 -0.916034 0.919984 16.377300 -0.000001 -0.000001 4.475800 -0.799305 -0.774331 6.456720 -0.000001 -0.000000 -0.017544 1.708950 1.082700 12.994200 -0.242716 4.980390 -89.616000 -1.131810 -71.256600 5.348090 -0.000007 -0.000001 -67.281800 36.186300 -12.106800 24.328600 0.000019 0.000005 3.653180 6.725800 -28.596600 22.291600 -0.000001 0.000005 6.850420 5.637480 -13.916400 12.994500 -0.242716 -4.980390 87.396800 6.709280 -68.736000 -5.348130 -0.000001 -0.000004 -63.168000 29.360300 -11.858900 -24.328900 0.000322 -0.000009 0.704917 1.541570 -24.604700 -22.291500 -0.000108 -0.000004 8.020580 5.579420 -10.174800 -2.192480 -6.469440 -0.000000 -167.643000 -15.799300 -3.187410 39.081100 -0.000007 -0.000012 -0.179001 0.477427 20.552700 40.985400 -0.000006 -0.000013 -6.802500 4.761780 -62.549900 11.754300 -0.000000 0.000003 -0.000147 -0.001429 -16.631900 -2.192510 6.469440 -0.000001 175.192000 21.141300 178.453000 -39.081100 -0.002282 -0.040193 -0.022040 0.072125 19.373700 -40.985400 0.000008 0.000006 -2.375060 2.923170 -63.190000 -11.754300 -0.000006 -0.000006 -0.004768 -0.059205 -18.981900
0.000000 0.000000 0.000000 0.000000 0.000000 -0.000000 -1.343430 92.070100 -1.702810 87.364500 -0.153662 2.714350 15.735700 0.000005 -0.000001 84.801700 85.112100 -84.373700 8.984550 -0.406207 -0.000000 1.973380 -0.906776 0.870788 16.377300 -0.000001 -0.000001 4.076610 -0.598393 -0.759337 6.456720 -0.000001 -0.000000 -0.456767 1.911450 0.927907 12.994200 -0.242716 4.980390 -89.594200 -1.198980 -71.299400 5.348090 -0.000007 -0.000001 -67.156900 36.806900 -12.072700 24.328600 0.000019 0.000005 3.620010 6.528800 -29.091800 22.291600 -0.000001 0.000005 7.845650 5.640250 -14.144100 12.994500 -0.242716 -4.980390 87.376300 6.783780 -68.797000 -5.348130 -0.000001 -0.000004 -61.946700 29.778000 -12.498100 -24.328900 0.000322 -0.000009 1.683960 3.557600 -25.360000 -22.291500 -0.000108 -0.000004 9.764130 5.594270 -10.985300 -2.192480 -6.469440 -0.000000 -167.673000 -15.756500 -3.218100 39.081100 -0.000007 -0.000012 -0.181170 0.481285 20.628100 40.985400 -0.000006 -0.000013 -6.771240 4.763390 -62.572700 11.754300 -0.000000 0.000003 -0.000155 -0.001494 -16.634300 -2.192510 6.469440 -0.000001 175.136000 21.149000 178.460000 -39.081100 -0.002282 -0.040193 -0.023420 0.075948 19.398100 -40.985400 0.000008 0.000006 -2.400420 2.951610 -63.169000 -11.754300 -0.000006 -0.000006 -0.004712 -0.058655 -18.959500
0.000000 0.000000 0.000000 0.000000 0.000000 -0.000000 -1.291660 92.077000 -1.730920 87.324000 -0.236240 2.737470 15.735700 0.000005 -0.000001 84.915900 85.081500 -84.493700 8.984550 -0.406207 -0.000000 2.035970 -0.892273 0.859533 16.377300 -0.000001 -0.000001 3.689500 -0.375240 -0.701065 6.456720 -0.000001 -0.000000 -0.812724 2.151760 0.782713 12.994200 -0.242716 4.980390 -89.565500 -1.283420 -71.296100 5.348090 -0.000007 -0.000001 -66.654200 38.040400 -12.053700 24.328600 0.000019 0.000005 3.624320 6.295290 -30.012400 22.291600 -0.000001 0.000005 8.513750 5.643520 -14.423300 12.994500 -0.242716 -4.980390 87.356800 6.847900 -68.834500 -5.348130 -0.000001 -0.000004 -60.256600 29.840500 -13.475200 -24.328900 0.000322 -0.000009 2.803590 5.712480 -26.204200 -22.291500 -0.000108 -0.000004 12.129300 5.607740 -11.810100 -2.192480 -6.469440 -0.000000 -167.670000 -15.808900 -3.218760 39.081100 -0.000007 -0.000012 -0.179563 0.475556 20.686000 40.985400 -0.000006 -0.000013 -6.730880 4.717490 -62.605000 11.754300 -0.000000 0.000003 -0.000137 -0.001341 -16.628700 -2.192510 6.469440 -0.000001 175.167000 21.119400 178.467000 -39.081100 -0.002282 -0.040193 -0.018815 0.063024 19.354300 -40.985400 0.000008 0.000006 -2.272450 2.976760 -63.117900 -11.754300 -0.000006 -0.000006 -0.004728 -0.058809 -18.965700
0.000000 0.000000 0.000000 0.000000 0.000000 -0.000000 -1.220590 92.077600 -1.768190 87.353500 -0.398262 2.778010 15.735700 0.000005 -0.000001 84.960000 85.058900 -84.575600 8.984550 -0.406207 -0.000000 2.081290 -0.886640 0.784271 16.377300 -0.000001 -0.000001 3.389960 -0.156534 -0.657278 6.456720 -0.000001 -0.000000 -1.117290 2.403300 0.793885 12.994200 -0.242716 4.980390 -89.547200 -1.333880 -71.248700 5.348090 -0.000007 -0.000001 -65.419300 40.042900 -12.137000 24.328600 0.000019 0.000005 3.899430 6.319220 -31.766400 22.291600 -0.000001 0.000005 8.798710 5.649660 -14.982100 12.994500 -0.242716 -4.980390 87.306800 6.978500 -68.835200 -5.348130 -0.000001 -0.000004 -58.334500 28.748100 -14.682800 -24.328900 0.000322 -0.000009 2.891640 5.662950 -27.117000 -22.291500 -0.000108 -0.000004 13.288800 5.611280 -12.040800 -2.192480 -6.469440 -0.000000 -167.742000 -15.764900 -3.175470 39.081100 -0.000007 -0.000012 -0.181780 0.480487 20.723100 40.985400 -0.000006 -0.000013 -6.715960 4.527070 -62.653000 11.754300 -0.000000 0.000003 -0.000156 -0.001502 -16.634600 -2.192510 6.469440 -0.000001 175.073000 21.079000 178.460000 -39.081100 -0.002282 -0.040193 -0.019365 0.064577 19.357500 -40.985400 0.000008 0.000006 -2.319400 3.103580 -63.055700 -11.754300 -0.000006 -0.000006 -0.004805 -0.059569 -18.996700
0.000000 0.000000 0.000000 0.000000 0.000000 -0.000000 -1.125210 92.084300 -1.801480 87.357100 -0.656896 2.825890 15.735700 0.000005 -0.000001 85.243400 85.049600 -84.884900 8.984550 -0.406207 -0.000000 2.103640 -0.838149 0.731874 16.377300 -0.000001 -0.000001 3.139420 0.023001 -0.605013 6.456720 -0.000001 -0.000000 -1.277850 2.526650 0.804601 12.994200 -0.242716 4.980390 -89.543500 -1.340060 -71.186900 5.348090 -0.000007 -0.000001 -63.288100 42.935100 -12.453000 24.328600 0.000019 0.000005 4.286130 6.268550 -34.465100 22.291600 -0.000001 0.000005 8.967940 5.655450 -15.563600 12.994500 -0.242716 -4.980390 87.296500 6.993390 -68.802000 -5.348130 -0.000001 -0.000004 -56.516200 26.363900 -16.002000 -24.328900 0.000322 -0.000009 2.692180 5.030740 -28.212000 -22.291500 -0.000108 -0.000004 14.156000 5.610840 -12.016400 -2.192480 -6.469440 -0.000000 -167.791000 -15.911500 -3.102850 39.081100 -0.000007 -0.000012 -0.180814 0.476700 20.772200 40.985400 -0.000006 -0.000013 -6.662400 4.412980 -62.705300 11.754300 -0.000000 0.000003 -0.000155 -0.001491 -16.634200 -2.192510 6.469440 -0.000001 175.012000 20.928600 178.472000 -39.081100 -0.002282 -0.040193 -0.017597 0.059737 19.299600 -40.985400 0.000008 0.000006 -2.314770 3.236690 -62.958000 -11.754300 -0.000006 -0.000006 -0.004778 -0.059299 -18.985700
0.000000 0.000000 0.000000 0.000000 0.000000 -0.000000 -1.025930 92.083200 -1.833950 87.373300 -0.939365 2.906570 15.735700 0.000005 -0.000001 85.351900 85.044600 -85.028000 8.984550 -0.406207 -0.000000 2.114690 -0.818535 0.662238 16.377300 -0.000001 -0.000001 2.972290 0.119580 -0.539525 6.456720 -0.000001 -0.000000 -1.346460 2.593620 0.835566 12.994200 -0.242716 4.980390 -89.513200 -1.421910 -71.098700 5.348090 -0.000007 -0.000001 -60.464600 46.146000 -12.928500 24.328600 0.000019 0.000005 4.996150 6.377350 -38.200600 22.291600 -0.000001 0.000005 8.437800 5.663500 -16.492000 12.994500 -0.242716 -4.980390 87.319700 6.917740 -68.759600 -5.348130 -0.000001 -0.000004 -54.475000 23.334900 -17.613500 -24.328900 0.000322 -0.000009 2.826520 4.968180 -29.696800 -22.291500 -0.000108 -0.000004 14.984800 5.606000 -11.709900 -2.192480 -6.469440 -0.000000 -167.841000 -16.034100 -3.003970 39.081100 -0.000007 -0.000012 -0.181897 0.477367 20.859300 40.985400 -0.000006 -0.000013 -6.614450 4.278050 -62.789400 11.754300 -0.000000 0.000003 -0.000146 -0.001423 -16.631700 -2.192510 6.469440 -0.000001 174.915000 20.762800 178.491000 -39.081100 -0.002282 -0.040193 -0.017298 0.058898 19.295600 -40.985400 0.000008 0.000006 -2.365830 3.363830 -62.880600 -11.754300 -0.000006 -0.000006 -0.004972 -0.061196 -19.063000
